#!OML:ASF H:\ManfredETheater\Project 1\Capture day 1\Session 1\subject.ASF
:FULLY-SPECIFIED
:DEGREES
49
root 4.40204 15.1686 12.4679 -170.837 -14.1726 -170.186
lowerback 16.9867 -1.5406 8.27618
upperback 0.597406 -0.595283 6.75736
thorax -8.90983 -0.796719 2.87237
lowerneck -20.1 5.86164 3.90856
upperneck 10.0109 8.46007 -12.2256
head 7.08647 2.98502 -3.62678
rclavicle 1.31198e-014 -2.70347e-014
rhumerus -46.5256 1.22345 -60.9539
rradius 80.267
rwrist -5.57487
rhand -29.5772 8.42636
rfingers 7.12502
rthumb -2.90917 -21.5335
lclavicle 1.31198e-014 -2.70347e-014
lhumerus -40.4708 -4.16204 96.3164
lradius 90.6405
lwrist 15.4106
lhand -23.9613 -12.0517
lfingers 7.12502
lthumb 2.51475 17.9133
rfemur -42.0158 -10.307 10.5718
rtibia 59.8046
rfoot -15.9664 -8.29439
rtoes -49.578
lfemur -13.3602 0.454831 -16.7251
ltibia 98.8787
lfoot -9.40561 -5.61814
ltoes -5.92114
50
root 4.33869 15.1546 12.0573 -170.834 -15.0454 -169.989
lowerback 17.1342 -1.32091 8.33911
upperback 0.595346 -0.272077 6.85404
thorax -8.99042 -0.648485 2.87122
lowerneck -20.0447 5.75152 3.80313
upperneck 10.1302 8.36602 -12.3326
head 7.1104 2.92264 -3.65886
rclavicle -9.54166e-015 5.725e-014
rhumerus -44.1936 1.66957 -61.2647
rradius 79.6841
rwrist -5.43844
rhand -29.5409 8.23624
rfingers 7.12502
rthumb -2.87413 -21.7241
lclavicle -9.54166e-015 5.725e-014
lhumerus -40.5321 -3.97599 96.3757
lradius 88.5215
lwrist 16.7559
lhand -24.0799 -12.3951
lfingers 7.12502
lthumb 2.4002 17.5712
rfemur -40.1679 -10.8355 10.7292
rtibia 60.0477
rfoot -17.5294 -9.30719
rtoes -50.2988
lfemur -17.4129 2.15614 -15.9626
ltibia 101.653
lfoot -10.5096 -5.36406
ltoes -6.18857
51
root 4.27073 15.1445 11.6492 -170.828 -15.9483 -169.723
lowerback 17.2976 -1.10693 8.53
upperback 0.555041 0.0769759 6.90782
thorax -9.12218 -0.494003 2.74628
lowerneck -19.9908 5.64025 3.7565
upperneck 10.2731 8.25902 -12.4343
head 7.14301 2.85731 -3.70051
rclavicle 2.38542e-015 -3.18055e-015
rhumerus -42.2104 2.24397 -61.7691
rradius 79.6633
rwrist -5.46753
rhand -29.5333 8.19224
rfingers 7.12502
rthumb -2.86679 -21.7682
lclavicle 2.38542e-015 -3.18055e-015
lhumerus -40.9774 -4.21023 96.4129
lradius 87.1981
lwrist 17.4819
lhand -23.9839 -12.7452
lfingers 7.12502
lthumb 2.49286 17.22
rfemur -38.2193 -11.345 10.9879
rtibia 60.0412
rfoot -18.9128 -10.4034
rtoes -50.8941
lfemur -21.5804 3.99067 -15.344
ltibia 103.997
lfoot -11.5569 -5.13547
ltoes -6.43665
52
root 4.19683 15.1381 11.242 -170.906 -16.8464 -169.292
lowerback 17.5271 -0.902784 8.93498
upperback 0.50254 0.462179 6.92812
thorax -9.29992 -0.335515 2.45756
lowerneck -19.946 5.53294 3.78741
upperneck 10.4041 8.13653 -12.5256
head 7.17414 2.79052 -3.75314
rclavicle 5.725e-014 1.43125e-014
rhumerus -40.5704 2.98595 -62.4769
rradius 80.2261
rwrist -5.68309
rhand -29.5463 8.34979
rfingers 7.12502
rthumb -2.87929 -21.6105
lclavicle 5.725e-014 1.43125e-014
lhumerus -41.8225 -4.79691 96.4097
lradius 86.7263
lwrist 17.3982
lhand -23.6846 -13.0413
lfingers 7.12502
lthumb 2.78196 16.9203
rfemur -36.1191 -11.7879 11.4319
rtibia 59.792
rfoot -20.0912 -11.5322
rtoes -51.416
lfemur -25.7607 5.94638 -14.8069
ltibia 105.879
lfoot -12.58 -4.99511
ltoes -6.68919
53
root 4.11752 15.1359 10.8328 -171.11 -17.714 -168.655
lowerback 17.8178 -0.699847 9.54184
upperback 0.459965 0.889334 6.93063
thorax -9.49084 -0.171295 2.02587
lowerneck -19.9137 5.42001 3.86907
upperneck 10.4863 7.98255 -12.5679
head 7.18754 2.71882 -3.80142
rclavicle 1.35174e-014 3.33958e-014
rhumerus -39.2287 3.91186 -63.3616
rradius 81.3119
rwrist -6.04493
rhand -29.5622 8.73054
rfingers 7.12502
rthumb -2.89468 -21.2296
lclavicle 1.35174e-014 3.33958e-014
lhumerus -43.0213 -5.62405 96.3609
lradius 87.0641
lwrist 16.5241
lhand -23.2059 -13.2488
lfingers 7.12502
lthumb 3.24423 16.7063
rfemur -33.8442 -12.1169 12.0915
rtibia 59.3023
rfoot -21.0474 -12.6507
rtoes -51.8674
lfemur -29.889 7.98821 -14.316
ltibia 107.277
lfoot -13.6101 -5.00401
ltoes -6.99103
